<svg width="31" height="31" viewBox="0 0 31 31" fill="none" xmlns="http://www.w3.org/2000/svg">
<path d="M7.90137 15.2502C7.90137 14.9442 8.021 14.6507 8.23395 14.4343C8.4469 14.2179 8.73573 14.0963 9.03689 14.0963H21.1491C21.4503 14.0963 21.7391 14.2179 21.952 14.4343C22.165 14.6507 22.2846 14.9442 22.2846 15.2502C22.2846 15.5562 22.165 15.8497 21.952 16.0661C21.7391 16.2825 21.4503 16.4041 21.1491 16.4041H9.03689C8.73573 16.4041 8.4469 16.2825 8.23395 16.0661C8.021 15.8497 7.90137 15.5562 7.90137 15.2502ZM12.0649 18.7119C11.7638 18.7119 11.475 18.8335 11.262 19.0499C11.0491 19.2663 10.9294 19.5598 10.9294 19.8658C10.9294 20.1718 11.0491 20.4653 11.262 20.6817C11.475 20.8981 11.7638 21.0197 12.0649 21.0197H18.121C18.4222 21.0197 18.711 20.8981 18.924 20.6817C19.1369 20.4653 19.2566 20.1718 19.2566 19.8658C19.2566 19.5598 19.1369 19.2663 18.924 19.0499C18.711 18.8335 18.4222 18.7119 18.121 18.7119H12.0649Z" fill="black"/>
<path fill-rule="evenodd" clip-rule="evenodd" d="M19.1274 0.37266C19.3967 0.235865 19.7084 0.213313 19.994 0.309961C20.2796 0.406609 20.5157 0.614546 20.6505 0.888066L23.3955 6.46677C24.0425 6.49856 24.6329 6.55292 25.1669 6.62985C26.7657 6.86217 28.089 7.36373 29.0292 8.54532C29.9694 9.7269 30.1753 11.147 30.0648 12.784C29.9588 14.3702 29.5348 16.3718 29.008 18.8719L28.3251 22.1136C27.9693 23.8014 27.6802 25.1691 27.3168 26.2368C26.9383 27.3523 26.4387 28.2677 25.5878 28.9677C24.7369 29.6678 23.7498 29.9708 22.5991 30.1139C21.4939 30.2509 20.1161 30.2509 18.4204 30.2509H11.7647C10.066 30.2509 8.68974 30.2509 7.5845 30.1139C6.43384 29.9708 5.4467 29.6678 4.59581 28.9677C3.74493 28.2677 3.2453 27.3523 2.8668 26.2384C2.50343 25.1691 2.21576 23.8013 1.85845 22.1151L1.17563 18.8734C0.648748 16.3718 0.226335 14.3702 0.118839 12.784C0.00831494 11.147 0.214222 9.72844 1.15443 8.54532C2.09313 7.36373 3.41639 6.86217 5.0152 6.62985C5.55015 6.55395 6.14062 6.49959 6.78661 6.46677L9.53608 0.888066C9.672 0.616718 9.90795 0.410957 10.1925 0.315623C10.4771 0.22029 10.7872 0.243112 11.0553 0.379117C11.3233 0.515121 11.5277 0.753283 11.6237 1.0417C11.7197 1.33012 11.6997 1.64542 11.5679 1.91888L9.35742 6.40676C9.90853 6.40369 10.4884 6.40266 11.097 6.40369H19.0881C19.6967 6.40369 20.2766 6.40471 20.8277 6.40676L18.6187 1.91888C18.4841 1.64527 18.4619 1.32854 18.557 1.03831C18.6521 0.748074 18.8568 0.508096 19.1259 0.371121M5.60264 8.87764L4.99249 10.1177C4.92451 10.2534 4.88364 10.4015 4.87223 10.5533C4.86082 10.7051 4.87911 10.8578 4.92603 11.0024C4.97295 11.147 5.04758 11.2808 5.14562 11.396C5.24366 11.5112 5.36316 11.6055 5.49724 11.6735C5.63132 11.7415 5.77733 11.7819 5.92684 11.7923C6.07635 11.8027 6.22641 11.783 6.36837 11.7342C6.51032 11.6854 6.64137 11.6085 6.75395 11.508C6.86653 11.4074 6.95842 11.2853 7.02431 11.1485L8.21585 8.72686C9.07884 8.71148 10.063 8.70994 11.1894 8.70994H18.9957C20.1221 8.70994 21.1063 8.70994 21.9693 8.72532L23.1608 11.1485C23.2967 11.4199 23.5327 11.6256 23.8172 11.7209C24.1018 11.8163 24.4119 11.7935 24.68 11.6575C24.9481 11.5214 25.1524 11.2833 25.2484 10.9949C25.3444 10.7064 25.3244 10.3912 25.1926 10.1177L24.5825 8.87764L24.8459 8.91302C26.1843 9.10842 26.8399 9.46382 27.2638 9.99461C27.6877 10.5269 27.8906 11.2547 27.7983 12.6255C27.7044 14.0255 27.3198 15.8656 26.7687 18.4796L26.1177 21.5566C25.7437 23.3336 25.4818 24.5629 25.1699 25.483C24.8671 26.3753 24.5582 26.8461 24.1601 27.1723C23.7634 27.4984 23.2441 27.7077 22.3251 27.8215C21.3727 27.94 20.1343 27.9415 18.3462 27.9415H11.8374C10.0508 27.9415 8.81238 27.94 7.86005 27.8215C6.93953 27.7077 6.42173 27.4984 6.02505 27.1723C5.62686 26.8461 5.31649 26.3738 5.0152 25.483C4.70179 24.5629 4.43987 23.3336 4.0659 21.5566L3.41639 18.4796C2.86528 15.8641 2.48072 14.0271 2.38685 12.6255C2.29449 11.2547 2.49889 10.5269 2.9213 9.99461C3.34523 9.46382 4.0008 9.10842 5.3392 8.91302L5.60264 8.87764Z" fill="black"/>
</svg>
