<svg width="39" height="30" viewBox="0 0 39 30" fill="none" xmlns="http://www.w3.org/2000/svg">
<path fill-rule="evenodd" clip-rule="evenodd" d="M13.6928 3.75H31.4516C32.4526 3.75 33.4126 4.14509 34.1204 4.84835C34.8282 5.55161 35.2258 6.50544 35.2258 7.5V22.5C35.2258 23.4946 34.8282 24.4484 34.1204 25.1517C33.4126 25.8549 32.4526 26.25 31.4516 26.25H13.6928C13.1269 26.2499 12.5683 26.1233 12.0583 25.8797C11.5483 25.636 11.0999 25.2816 10.7464 24.8425L4.51901 17.11C4.03634 16.5113 3.77334 15.7671 3.77334 15C3.77334 14.2329 4.03634 13.4887 4.51901 12.89L10.7464 5.1575C11.0994 4.71909 11.5469 4.36502 12.056 4.12141C12.5651 3.8778 13.1227 3.75088 13.6878 3.75M7.79249 2.815C8.50028 1.93587 9.39818 1.22634 10.4196 0.739027C11.441 0.251716 12.5597 -0.000870148 13.6928 2.25219e-06H31.4516C33.4536 2.25219e-06 35.3735 0.790179 36.7891 2.1967C38.2047 3.60322 39 5.51088 39 7.5V22.5C39 24.4891 38.2047 26.3968 36.7891 27.8033C35.3735 29.2098 33.4536 30 31.4516 30H13.6928C12.5606 30.0001 11.4428 29.7472 10.4224 29.2599C9.40187 28.7726 8.50478 28.0635 7.79752 27.185L1.57263 19.4525C0.554642 18.1889 0 16.6186 0 15C0 13.3814 0.554642 11.8111 1.57263 10.5475L7.79249 2.815ZM18.3174 8.675C17.9597 8.3438 17.4866 8.16349 16.9977 8.17206C16.5088 8.18063 16.0423 8.37741 15.6966 8.72095C15.3508 9.06448 15.1528 9.52794 15.1442 10.0137C15.1355 10.4994 15.317 10.9696 15.6504 11.325L19.3491 15L15.6504 18.675C15.4649 18.8467 15.3162 19.0537 15.2131 19.2837C15.11 19.5137 15.0545 19.7619 15.05 20.0137C15.0456 20.2655 15.0922 20.5155 15.1871 20.749C15.282 20.9825 15.4233 21.1945 15.6024 21.3726C15.7816 21.5506 15.9951 21.691 16.2301 21.7853C16.465 21.8796 16.7167 21.9259 16.9701 21.9215C17.2235 21.917 17.4734 21.8619 17.7049 21.7595C17.9363 21.657 18.1447 21.5092 18.3174 21.325L22.0161 17.65L25.7149 21.325C25.8876 21.5092 26.096 21.657 26.3274 21.7595C26.5589 21.8619 26.8088 21.917 27.0622 21.9215C27.3156 21.9259 27.5673 21.8796 27.8022 21.7853C28.0372 21.691 28.2507 21.5506 28.4299 21.3726C28.609 21.1945 28.7503 20.9825 28.8452 20.749C28.9401 20.5155 28.9867 20.2655 28.9823 20.0137C28.9778 19.7619 28.9223 19.5137 28.8192 19.2837C28.7161 19.0537 28.5674 18.8467 28.3819 18.675L24.6832 15L28.3819 11.325C28.7153 10.9696 28.8968 10.4994 28.8881 10.0137C28.8795 9.52794 28.6815 9.06448 28.3357 8.72095C27.99 8.37741 27.5235 8.18063 27.0346 8.17206C26.5457 8.16349 26.0726 8.3438 25.7149 8.675L22.0161 12.35L18.3174 8.675Z" fill="black"/>
</svg>
